<?xml version="1.0" encoding="UTF-8" standalone="no"?>
<!-- Created with Inkscape (http://www.inkscape.org/) -->
<svg xmlns:dc="http://purl.org/dc/elements/1.1/" xmlns:cc="http://creativecommons.org/ns#" xmlns:rdf="http://www.w3.org/1999/02/22-rdf-syntax-ns#" xmlns:svg="http://www.w3.org/2000/svg" xmlns="http://www.w3.org/2000/svg" xmlns:sodipodi="http://sodipodi.sourceforge.net/DTD/sodipodi-0.dtd" xmlns:inkscape="http://www.inkscape.org/namespaces/inkscape" id="svg2837" version="1.1" inkscape:version="0.47 r22583" width="1000" height="750" xml:space="preserve" sodipodi:docname="New document 3"><metadata id="metadata2843"><rdf:RDF><cc:Work rdf:about=""><dc:format>image/svg+xml</dc:format><dc:type rdf:resource="http://purl.org/dc/dcmitype/StillImage"/><dc:title/></cc:Work></rdf:RDF></metadata><defs id="defs2841"><inkscape:perspective sodipodi:type="inkscape:persp3d" inkscape:vp_x="0 : 0.5 : 1" inkscape:vp_y="0 : 1000 : 0" inkscape:vp_z="1 : 0.5 : 1" inkscape:persp3d-origin="0.5 : 0.33333333 : 1" id="perspective2845"/><radialGradient fx="0" fy="0" cx="0" cy="0" r="1" gradientUnits="userSpaceOnUse" gradientTransform="matrix(461.69357,0,0,-461.69357,6993.6753,7204.1353)" spreadMethod="pad" id="radialGradient2861"><stop style="stop-opacity:1;stop-color:#faef76" offset="0" id="stop2863"/><stop style="stop-opacity:1;stop-color:#0078b3" offset="1" id="stop2865"/></radialGradient><radialGradient fx="0" fy="0" cx="0" cy="0" r="1" gradientUnits="userSpaceOnUse" gradientTransform="matrix(461.69748,0,0,-461.69748,6993.6738,7204.1348)" spreadMethod="pad" id="radialGradient2881"><stop style="stop-opacity:1;stop-color:#faef76" offset="0" id="stop2883"/><stop style="stop-opacity:1;stop-color:#0078b3" offset="1" id="stop2885"/></radialGradient><radialGradient fx="0" fy="0" cx="0" cy="0" r="1" gradientUnits="userSpaceOnUse" gradientTransform="matrix(461.69501,0,0,-461.69501,6993.6743,7204.1353)" spreadMethod="pad" id="radialGradient2901"><stop style="stop-opacity:1;stop-color:#faef76" offset="0" id="stop2903"/><stop style="stop-opacity:1;stop-color:#0078b3" offset="1" id="stop2905"/></radialGradient></defs><sodipodi:namedview pagecolor="#ffffff" bordercolor="#666666" borderopacity="1" objecttolerance="10" gridtolerance="10" guidetolerance="10" inkscape:pageopacity="0" inkscape:pageshadow="2" inkscape:window-width="1272" inkscape:window-height="1000" id="namedview2839" showgrid="false" inkscape:zoom="0.632" inkscape:cx="609.39051" inkscape:cy="563.90897" inkscape:window-x="1280" inkscape:window-y="0" inkscape:window-maximized="0" inkscape:current-layer="g2847"/><g id="g2847" inkscape:groupmode="layer" inkscape:label="RISPlogo" transform="matrix(1.25,0,0,-1.25,-8500.625,9374.375)"><g id="g2849"><g id="g2851"><g id="g2857"><g id="g2859"><path d="m 7151.401,7241.362 23.163,0 0,-71.169 -23.163,0 0,71.169 z" style="fill:url(#radialGradient2861);stroke:none" id="path2867"/></g></g></g></g><g id="g2869"><g id="g2871"><g id="g2877"><g id="g2879"><path d="m 7062.448,7282.463 c 44.559,0.228 134.73,-4.268 183.262,-41.101 l 0,0 -21.814,0 c -9.067,0 -14.456,-4.402 -16.165,-13.209 l 0,0 c -1.71,-8.807 3.155,-18.467 14.589,-28.98 l 0,0 c 6.932,-5.453 5.75,-8.051 -3.549,-7.788 l 0,0 -39.229,0 0,-21.192 62.099,0 c 10.249,1.709 15.474,6.968 15.67,15.771 l 0,0 c 0.198,8.807 -5.024,17.875 -15.67,27.206 l 0,0 c -5.945,4.93 -4.699,7.264 3.743,7 l 0,0 20.679,0 c 0.217,-0.325 0.445,-0.643 0.654,-0.972 l 0,0 0,0.029 c 0,0 14.485,-18.529 11.695,-49.435 l 0,0 c -2.024,-22.435 -9.812,-44.744 -13.936,-55.296 l 0,0 c -0.245,-0.742 -0.495,-1.482 -0.744,-2.227 l 0,0 30.263,16.028 c 0,0 8.377,13.599 9.66,41.896 l 0,0 0.224,4.391 c 0.239,4.467 0.473,9.946 0,16.042 l 0,0 0,3.08 22.28,0 c 5.912,0.885 10.647,2.84 14.195,5.861 l 0,0 c 3.549,3.025 5.718,5.685 6.505,7.983 l 0,0 c 0.785,2.303 1.312,4.767 1.576,7.394 l 0,0 c 0.26,2.628 -0.329,6.574 -1.774,11.829 l 0,0 c -1.576,4.336 -4.236,7.723 -7.983,10.151 l 0,0 c -3.744,2.432 -8.479,3.914 -14.196,4.438 l 0,0 -48.101,0 c -28.094,22.615 -84.037,41.282 -194.668,41.283 l 0,0 c -6.249,0 -12.666,-0.06 -19.269,-0.182 m 241.435,-58.845 17.893,0 c 0.787,0 1.763,-0.434 2.931,-1.305 l 0,0 c 1.167,-0.871 1.832,-2.67 1.995,-5.396 l 0,0 c -0.066,-2.858 -0.659,-4.643 -1.771,-5.348 l 0,0 c -1.117,-0.708 -2.154,-1.059 -3.108,-1.059 l 0,0 -17.94,0 0,13.108 z" style="fill:url(#radialGradient2881);stroke:none" id="path2887"/></g></g></g></g><g id="g2889"><g id="g2891"><g id="g2897"><g id="g2899"><path d="m 7052.777,7241.362 0,-71.169 25.727,0 0,19.273 c 0.354,-1.966 0.684,-3.621 0.684,-3.621 l 0,0 0.021,0.011 c 1.579,-8.46 5.587,-12.84 8.645,-14.148 l 0,0 c 0.043,-0.019 0.09,-0.037 0.133,-0.051 l 0,0 c 0.383,-0.163 0.792,-0.3 1.189,-0.441 l 0,0 c 3.516,-1.135 7.047,-1.008 7.047,-1.008 l 0,0 15.291,0 c 0,0 -0.018,-0.011 -0.022,-0.015 l 0,0 34.784,0 0,21.192 -33.743,0 c -5.793,-0.188 -7.904,3.734 -6.368,7.792 l 0,0 c 3.791,1.189 6.831,2.663 9.107,4.43 l 0,0 c 2.957,2.303 5.027,5.161 6.209,8.577 l 0,0 c 1.186,3.418 1.117,8.279 -0.195,14.589 l 0,0 c -1.709,4.206 -4.406,7.557 -8.084,10.054 l 0,0 c -3.683,2.497 -8.377,4.011 -14.095,4.535 l 0,0 -46.33,0 z m 25.727,-17.744 17.889,0 c 0.792,0 1.768,-0.434 2.935,-1.305 l 0,0 c 1.167,-0.871 1.832,-2.67 1.998,-5.396 l 0,0 c -0.069,-2.858 -0.661,-4.643 -1.778,-5.348 l 0,0 c -1.116,-0.708 -2.15,-1.059 -3.104,-1.059 l 0,0 -17.94,0 0,13.108 z" style="fill:url(#radialGradient2901);stroke:none" id="path2907"/></g></g></g></g></g></svg>